<svg width="41" height="40" viewBox="0 0 41 40" fill="none" xmlns="http://www.w3.org/2000/svg">
<g clip-path="url(#clip0_169_15)">
<path d="M34.3199 0H5.96011C2.72025 0 0.0844727 2.62848 0.0844727 5.85938V34.1406C0.0844727 37.3715 2.72025 40 5.96011 40H34.3199C37.5597 40 40.1955 37.3715 40.1955 34.1406V5.85938C40.1955 2.62848 37.5597 0 34.3199 0ZM37.8453 34.1406C37.8453 36.0791 36.2637 37.6562 34.3199 37.6562H5.96011C4.01625 37.6562 2.43473 36.0791 2.43473 34.1406V5.85938C2.43473 3.9209 4.01625 2.34375 5.96011 2.34375H34.3199C36.2637 2.34375 37.8453 3.9209 37.8453 5.85938V34.1406Z" fill="#070707" stroke="#070707" stroke-width="0.5"/>
<path d="M18.9647 16.4844C18.9647 13.8995 16.8562 11.7969 14.2641 11.7969H7.21338V28.2031H14.2641C16.8562 28.2031 18.9647 26.1005 18.9647 23.5156C18.9647 22.1167 18.3462 20.8597 17.3681 20C18.3462 19.1403 18.9647 17.8833 18.9647 16.4844ZM16.6144 23.5156C16.6144 24.808 15.5602 25.8594 14.2641 25.8594H9.56363V21.1719H14.2641C15.5602 21.1719 16.6144 22.2232 16.6144 23.5156ZM9.56363 18.8281V14.1406H14.2641C15.5602 14.1406 16.6144 15.192 16.6144 16.4844C16.6144 17.7768 15.5602 18.8281 14.2641 18.8281H9.56363Z" fill="#070707" stroke="#070707" stroke-width="0.5"/>
<path d="M27.1906 16.4844C23.9507 16.4844 21.3149 19.1129 21.3149 22.3438C21.3149 25.5746 23.9507 28.2031 27.1906 28.2031C29.2816 28.2031 31.2316 27.081 32.2794 25.2744L30.245 24.1006C29.6158 25.1855 28.4453 25.8594 27.1906 25.8594C25.6583 25.8594 24.3516 24.8798 23.8666 23.5156H33.0662V22.3438C33.0662 19.1129 30.4304 16.4844 27.1906 16.4844ZM23.8666 21.1719C24.3516 19.8077 25.6583 18.8281 27.1906 18.8281C28.7228 18.8281 30.0296 19.8077 30.5146 21.1719H23.8666Z" fill="#070707" stroke="#070707" stroke-width="0.5"/>
<path d="M22.4902 11.7969H31.8913V14.1406H22.4902V11.7969Z" fill="#070707" stroke="#070707" stroke-width="0.5"/>
</g>
<defs>
<clipPath id="clip0_169_15">
<rect width="40.111" height="40" fill="white" transform="translate(0.0844727)"/>
</clipPath>
</defs>
</svg>
