<svg width="40" height="41" viewBox="0 0 40 41" fill="none" xmlns="http://www.w3.org/2000/svg">
<path d="M12.1665 1.29281H12.6665V1.2832H28.5713C34.5359 1.2832 39.4183 6.26789 39.4183 12.3952V29.1692C39.4183 35.2968 34.5356 40.2812 28.5807 40.2812H12.1665C6.20059 40.2812 1.31006 35.3048 1.31006 29.1884V12.4048C1.31006 6.27805 6.20139 1.29281 12.1665 1.29281ZM3.31839 12.4135V12.4144V29.1981C3.31839 34.1842 7.24594 38.2148 12.1665 38.2148H28.5807C33.4839 38.2148 37.41 34.1827 37.41 29.1788V12.4048C37.41 7.4006 33.4835 3.36885 28.5713 3.36885H12.1665C7.25373 3.36885 3.32831 7.40093 3.31839 12.4135ZM31.4027 8.4829C31.4027 7.89297 31.8568 7.44489 32.4069 7.44489C32.957 7.44489 33.4111 7.89297 33.4111 8.4829C33.4111 9.07283 32.957 9.52092 32.4069 9.52092C31.8568 9.52092 31.4027 9.07283 31.4027 8.4829ZM10.3444 20.787C10.3444 15.1313 14.8691 10.5209 20.3736 10.5209C25.878 10.5209 30.4027 15.1313 30.4027 20.787C30.4027 26.4428 25.878 31.0532 20.3736 31.0532C14.8691 31.0532 10.3444 26.4428 10.3444 20.787ZM28.3944 20.787C28.3944 16.2534 24.8342 12.597 20.3736 12.597C15.913 12.597 12.3528 16.2534 12.3528 20.787C12.3528 25.3206 15.913 28.9771 20.3736 28.9771C24.8342 28.9771 28.3944 25.3206 28.3944 20.787Z" fill="#070707" stroke="#070707"/>
</svg>
